<svg height="512pt" viewBox="0 -46 512 512" width="512pt" xmlns="http://www.w3.org/2000/svg"><g fill="#32393f"><path d="m323.210938 90h-97.210938v-30h84.789062l30-30h51.210938v30h-38.789062zm0 0"/><path d="m226 120h166v30h-166zm0 0"/><path d="m392 240h-51.210938l-30-30h-84.789062v-30h97.210938l30 30h38.789062zm0 0"/><path d="m422 30h30v30h-30zm0 0"/><path d="m422 120h30v30h-30zm0 0"/><path d="m422 210h30v30h-30zm0 0"/></g><path d="m241 60v255h-90v-255l45-30zm0 0" fill="#ff641a"/><path d="m241 315h-45v-285l45 30zm0 0" fill="#f03800"/><path d="m151 0h90v60h-90zm0 0" fill="#575f64"/><path d="m196 0h45v60h-45zm0 0" fill="#32393f"/><path d="m241 315-45 105-45-105c0-24.902344 20.097656-45 45-45s45 20.097656 45 45zm0 0" fill="#fed2a4"/><path d="m241 315-45 105v-150c24.902344 0 45 20.097656 45 45zm0 0" fill="#ffbd86"/><path d="m512 360c0 33-27 60-60 60h-392c-33 0-60-27-60-60s27-60 60-60 60 27 60 60h-30c0-16.5-13.5-30-30-30s-30 13.5-30 30 13.5 30 30 30h392c16.5 0 30-13.5 30-30s-13.5-30-30-30-30 13.5-30 30h-30c0-33 27-60 60-60s60 27 60 60zm0 0" fill="#00c8c8"/><path d="m512 360c0 33-27 60-60 60h-256v-30h256c16.5 0 30-13.5 30-30s-13.5-30-30-30-30 13.5-30 30h-30c0-33 27-60 60-60s60 27 60 60zm0 0" fill="#1cadb5"/></svg>