<svg height="512pt" viewBox="-31 0 512 512" width="512pt" xmlns="http://www.w3.org/2000/svg"><g fill="#32393f"><path d="m450 391-75-30v-120l75-30zm0 0"/><path d="m270 61v330l-30 30h-210l-30-30v-330l30-31h210zm0 0"/><path d="m270 61v330l-30 30h-105v-391h105zm0 0"/></g><path d="m30 91h210v270h-210zm0 0" fill="#ffd396"/><path d="m135 91h105v270h-105zm0 0" fill="#ffb64c"/><path d="m0 391h270v121h-270zm0 0" fill="#f2f2fc"/><path d="m135 391h135v121h-135zm0 0" fill="#d8d8fc"/><path d="m120 436h30v30h-30zm0 0" fill="#575f64"/><path d="m135 436h15v30h-15zm0 0" fill="#32393f"/><path d="m0 0h270v61h-270zm0 0" fill="#f2f2fc"/><path d="m135 0h135v61h-135zm0 0" fill="#d8d8fc"/><path d="m120 211h270v180h-270zm0 0" fill="#ff641a"/><path d="m180 271h60v30h-60zm0 0" fill="#ffd396"/><path d="m255 211h135v180h-135zm0 0" fill="#f03800"/><path d="m255 181c0 33.136719-26.863281 60-60 60s-60-26.863281-60-60 26.863281-60 60-60 60 26.863281 60 60zm0 0" fill="#575f64"/><path d="m195 211c-16.539062 0-30-13.460938-30-30s13.460938-30 30-30 30 13.460938 30 30-13.460938 30-30 30zm0 0" fill="#f2f2fc"/><path d="m375 181c0 33.136719-26.863281 60-60 60s-60-26.863281-60-60 26.863281-60 60-60 60 26.863281 60 60zm0 0" fill="#32393f"/><path d="m315 211c-16.539062 0-30-13.460938-30-30s13.460938-30 30-30 30 13.460938 30 30-13.460938 30-30 30zm0 0" fill="#d8d8fc"/></svg>