<svg height="512pt" viewBox="0 -16 512 512" width="512pt" xmlns="http://www.w3.org/2000/svg"><path d="m331 0v450h-331v-330l120-120zm0 0" fill="#f2f2fc"/><g fill="#d8d8fc"><path d="m166 0h165v450h-165zm0 0"/><path d="m120 0h-21.210938l-98.789062 98.789062v21.210938h120zm0 0"/><path d="m151 90h120v30h-120zm0 0"/><path d="m60 150h211v30h-211zm0 0"/><path d="m60 210h211v30h-211zm0 0"/></g><path d="m166 90h105v30h-105zm0 0" fill="#a3a3d1"/><path d="m166 150h105v30h-105zm0 0" fill="#a3a3d1"/><path d="m166 210h105v30h-105zm0 0" fill="#a3a3d1"/><path d="m512 480-76-30v-120l76-30zm0 0" fill="#32393f"/><path d="m181 300h270v180h-270zm0 0" fill="#ff641a"/><path d="m241 360h60v30h-60zm0 0" fill="#ffd396"/><path d="m316 300h135v180h-135zm0 0" fill="#f03800"/><path d="m316 270c0 33.136719-26.863281 60-60 60s-60-26.863281-60-60 26.863281-60 60-60 60 26.863281 60 60zm0 0" fill="#575f64"/><path d="m256 300c-16.539062 0-30-13.460938-30-30s13.460938-30 30-30 30 13.460938 30 30-13.460938 30-30 30zm0 0" fill="#f2f2fc"/><path d="m436 270c0 33.136719-26.863281 60-60 60s-60-26.863281-60-60 26.863281-60 60-60 60 26.863281 60 60zm0 0" fill="#32393f"/><path d="m376 300c-16.539062 0-30-13.460938-30-30s13.460938-30 30-30 30 13.460938 30 30-13.460938 30-30 30zm0 0" fill="#d8d8fc"/></svg>