<svg height="512pt" viewBox="0 0 512 512" width="512pt" xmlns="http://www.w3.org/2000/svg"><path d="m0 211 121 150v-240zm0 0" fill="#64e1dc"/><path d="m391 121v210l121-120zm0 0" fill="#00c8c8"/><path d="m91 0h330v421h-330zm0 0" fill="#f2f2fc"/><path d="m256 0h165v421h-165zm0 0" fill="#d8d8fc"/><path d="m512 211v301l-136-45-75-106zm0 0" fill="#a3a3d1"/><path d="m211 361-75 106-136 45v-301zm0 0" fill="#d8d8fc"/><path d="m256 61c-57.898438 0-105 47.101562-105 105s47.101562 105 105 105c16.5 0 32.402344-3.601562 47.101562-11.101562l-13.5-26.699219c-10.5 5.101562-21.902343 7.800781-33.601562 7.800781-41.398438 0-75-33.601562-75-75s33.601562-75 75-75 75 33.601562 75 75c0 8.398438-6.597656 15-15 15s-15-6.601562-15-15c0-24.902344-20.097656-45-45-45s-45 20.097656-45 45c0 24.898438 20.097656 45 45 45 11.699219 0 21.898438-4.5 30-11.699219 8.101562 7.199219 18.300781 11.699219 30 11.699219 24.902344 0 45-20.101562 45-45 0-57.898438-47.101562-105-105-105zm0 120c-8.402344 0-15-6.601562-15-15 0-8.402344 6.597656-15 15-15s15 6.597656 15 15c0 8.398438-6.597656 15-15 15zm0 0" fill="#00c8c8"/><path d="m303.101562 259.898438c-14.703124 7.5-30.601562 11.101562-47.101562 11.101562v-30c11.699219 0 23.101562-2.699219 33.601562-7.800781zm0 0" fill="#1cadb5"/><path d="m361 166c0 24.898438-20.097656 45-45 45-11.699219 0-21.898438-4.5-30-11.699219-8.101562 7.199219-18.300781 11.699219-30 11.699219v-30c8.402344 0 15-6.601562 15-15 0-8.402344-6.597656-15-15-15v-30c24.902344 0 45 20.097656 45 45 0 8.398438 6.597656 15 15 15s15-6.601562 15-15c0-41.398438-33.601562-75-75-75v-30c57.898438 0 105 47.101562 105 105zm0 0" fill="#1cadb5"/><path d="m512 512h-512l211-151h90zm0 0" fill="#f2f2fc"/><path d="m512 512h-256v-151h45zm0 0" fill="#d8d8fc"/></svg>