<svg height="512pt" viewBox="-31 0 512 512" width="512pt" xmlns="http://www.w3.org/2000/svg"><path d="m371.453125 346-45.804687-22.910156 13.417968-26.835938 45.804688 22.910156zm0 0" fill="#32393f"/><path d="m339.066406 215.746094-13.417968-26.835938 45.804687-22.910156 13.417969 26.835938zm0 0" fill="#32393f"/><path d="m210 76h30v60h-30zm0 0" fill="#575f64"/><path d="m225 76h15v60h-15zm0 0" fill="#32393f"/><path d="m110.933594 215.746094-45.804688-22.910156 13.417969-26.835938 45.804687 22.910156zm0 0" fill="#575f64"/><path d="m78.546875 346-13.417969-26.835938 45.804688-22.910156 13.417968 26.835938zm0 0" fill="#575f64"/><path d="m210 376h30v60h-30zm0 0" fill="#575f64"/><path d="m225 376h15v60h-15zm0 0" fill="#32393f"/><g fill="#ff641a"><path d="m225 0c-24.902344 0-45 21.097656-45 46 0 24.898438 20.097656 45 45 45s45-20.101562 45-45c0-24.902344-20.097656-46-45-46zm0 0"/><path d="m225 421c-24.902344 0-45 20.097656-45 45 0 24.898438 20.097656 46 45 46s45-21.101562 45-46c0-24.902344-20.097656-45-45-45zm0 0"/><path d="m45 391c-24.8125 0-45-20.1875-45-45s20.1875-45 45-45 45 20.1875 45 45-20.1875 45-45 45zm0 0"/><path d="m45 211c-24.8125 0-45-20.1875-45-45s20.1875-45 45-45 45 20.1875 45 45-20.1875 45-45 45zm0 0"/></g><path d="m405 391c-24.8125 0-45-20.1875-45-45s20.1875-45 45-45 45 20.1875 45 45-20.1875 45-45 45zm0 0" fill="#f03800"/><path d="m405 211c-24.8125 0-45-20.1875-45-45s20.1875-45 45-45 45 20.1875 45 45-20.1875 45-45 45zm0 0" fill="#f03800"/><path d="m270 466c0 24.898438-20.097656 46-45 46v-91c24.902344 0 45 20.097656 45 45zm0 0" fill="#f03800"/><path d="m225 91v-91c24.902344 0 45 21.097656 45 46 0 24.898438-20.097656 45-45 45zm0 0" fill="#f03800"/><path d="m225 121c-74.398438 0-135 60.597656-135 135 0 74.398438 60.601562 135 135 135s135-60.601562 135-135c0-74.402344-60.601562-135-135-135zm0 0" fill="#9bfcff"/><path d="m360 256c0 74.398438-60.601562 135-135 135v-270c74.398438 0 135 60.597656 135 135zm0 0" fill="#64e1dc"/><path d="m225 151c-57.898438 0-105 47.101562-105 105s47.101562 105 105 105 105-47.101562 105-105-47.101562-105-105-105zm0 0" fill="#00c8c8"/><path d="m330 256c0 57.898438-47.101562 105-105 105v-210c57.898438 0 105 47.101562 105 105zm0 0" fill="#1cadb5"/><path d="m225 121c-39.300781 0-60 67.800781-60 135s20.699219 135 60 135 60-67.800781 60-135-20.699219-135-60-135zm0 240c-8.699219 0-30-36.902344-30-105 0-68.101562 21.300781-105 30-105s30 36.898438 30 105c0 68.097656-21.300781 105-30 105zm0 0" fill="#9bfcff"/><path d="m105 241h240v30h-240zm0 0" fill="#9bfcff"/><path d="m225 241h120v30h-120zm0 0" fill="#64e1dc"/><path d="m285 256c0 67.199219-20.699219 135-60 135v-30c8.699219 0 30-36.902344 30-105 0-68.101562-21.300781-105-30-105v-30c39.300781 0 60 67.800781 60 135zm0 0" fill="#64e1dc"/></svg>