<svg height="512pt" viewBox="0 -61 512 512" width="512pt" xmlns="http://www.w3.org/2000/svg"><path d="m335.5 34.5v261c-36-35.699219-84.699219-55.5-135.402344-55.5h-20.097656l-30-16.199219v-103.800781l30-30h20.097656c50.703125 0 99.402344-19.800781 135.402344-55.5zm0 0" fill="#f2f2fc"/><path d="m150 165h185.5v130.5c-36-35.699219-84.699219-55.5-135.402344-55.5h-20.097656l-30-16.199219zm0 0" fill="#d8d8fc"/><path d="m421 165c0 24.898438-20.097656 45-45 45h-30v-90h30c24.902344 0 45 20.097656 45 45zm0 0" fill="#d8d8fc"/><path d="m346 165h75c0 24.898438-20.097656 45-45 45h-30zm0 0" fill="#a3a3d1"/><path d="m451 150h61v30h-61zm0 0" fill="#ffd396"/><path d="m472.671875 62.542969 16.640625 24.960937-45 30-16.640625-24.964844zm0 0" fill="#ffd396"/><path d="m444.339844 212.53125 45.003906 30-16.640625 24.964844-45-30zm0 0" fill="#ffb64c"/><path d="m451 165h61v15h-61zm0 0" fill="#ffb64c"/><g fill="#32393f"><path d="m90 210h60v180h-60zm0 0"/><path d="m0 150h45v30h-45zm0 0"/><path d="m0 165h45v15h-45zm0 0"/></g><path d="m331 0h30v330h-30zm0 0" fill="#ff641a"/><path d="m331 165h30v165h-30zm0 0" fill="#f03800"/><path d="m30 90h150v150h-150zm0 0" fill="#ff641a"/><path d="m30 165h150v75h-150zm0 0" fill="#f03800"/></svg>