<svg height="512pt" viewBox="0 0 512 512" width="512pt" xmlns="http://www.w3.org/2000/svg"><path d="m452 0v301l-30 30h-392l-30-120v-211zm0 0" fill="#32393f"/><path d="m452 0v301l-30 30h-196v-331zm0 0" fill="#32393f"/><path d="m180 346h92v60h-92zm0 0" fill="#d8d8fc"/><path d="m226 346h46v60h-46zm0 0" fill="#a3a3d1"/><path d="m120 391h212v30h-212zm0 0" fill="#f2f2fc"/><path d="m226 391h106v30h-106zm0 0" fill="#d8d8fc"/><path d="m30 301h422v60h-422zm0 0" fill="#f2f2fc"/><path d="m226 301h226v60h-226zm0 0" fill="#d8d8fc"/><path d="m30 30h392v241h-392zm0 0" fill="#ffd396"/><path d="m226 30h196v241h-196zm0 0" fill="#ffb64c"/><path d="m512 271v180l-30 30h-150l-30-30v-180l30-30h150zm0 0" fill="#32393f"/><path d="m512 271v180l-30 30h-75v-240h75zm0 0" fill="#32393f"/><path d="m302 211h210v60h-210zm0 0" fill="#f2f2fc"/><path d="m302 451h210v61h-210zm0 0" fill="#f2f2fc"/><path d="m407 211h105v60h-105zm0 0" fill="#d8d8fc"/><path d="m407 451h105v61h-105zm0 0" fill="#d8d8fc"/><path d="m332 301h150v120h-150zm0 0" fill="#ffd396"/><path d="m407 301h75v120h-75zm0 0" fill="#ffb64c"/><path d="m150 256v150l-30 30h-90l-30-30v-150l30-30h90zm0 0" fill="#32393f"/><path d="m150 256v150l-30 30h-45v-210h45zm0 0" fill="#32393f"/><path d="m0 211h150v45h-150zm0 0" fill="#f2f2fc"/><path d="m0 406h150v45h-150zm0 0" fill="#f2f2fc"/><path d="m75 211h75v45h-75zm0 0" fill="#d8d8fc"/><path d="m75 406h75v45h-75zm0 0" fill="#d8d8fc"/><path d="m30 286h90v90h-90zm0 0" fill="#ffd396"/><path d="m75 286h45v90h-45zm0 0" fill="#ffb64c"/></svg>