<svg height="512pt" viewBox="0 -16 512 512" width="512pt" xmlns="http://www.w3.org/2000/svg"><path d="m0 0v420h61v60l109.5-60h341.5v-420zm0 0" fill="#64e1dc"/><path d="m256 0h256v420h-256zm0 0" fill="#00c8c8"/><path d="m421 360h-120l-30-15v-164.0625l30-30.9375h120zm0 0" fill="#fed2a4"/><path d="m301 105v255h-51.300781l-30-30h-83.699219v-150h83.699219l21.300781-21.300781v-98.699219h15c24.902344 0 45 20.097656 45 45zm0 0" fill="#ffbd86"/><path d="m301 105v255h-45v-300c24.902344 0 45 20.097656 45 45zm0 0" fill="#f6a96c"/><path d="m91 150h60v210h-60zm0 0" fill="#575f64"/></svg>