<svg height="512pt" viewBox="0 0 512 512" width="512pt" xmlns="http://www.w3.org/2000/svg"><path d="m152 0v180h360v-180zm0 0" fill="#ff641a"/><path d="m332 0h180v180h-180zm0 0" fill="#f03800"/><path d="m182 30v120h300v-120zm0 0" fill="#f03800"/><path d="m332 30h150v120h-150zm0 0" fill="#ae2538"/><path d="m512 390v122h-512v-512h122v30l-30 15 30 15v30l-30 15 30 15v30l-30 15 30 15v30l-30 15 30 15v30l-30 15 30 15v30l-30 15 30 15v30h30l15 30 15-30h30l15 30 15-30h30l15 30 15-30h30l15 30 15-30h30l15 30 15-30h30l15 30 15-30zm0 0" fill="#ffd396"/><path d="m512 390v122h-512l122-122h30l15 30 15-30h30l15 30 15-30h30l15 30 15-30h30l15 30 15-30h30l15 30 15-30h30l15 30 15-30zm0 0" fill="#ffb64c"/><path d="m362 360h-210v-150h210zm0 0" fill="#f2f2fc"/><path d="m512 360h-120v-150h120zm0 0" fill="#d8d8fc"/><path d="m182 330h150v-90h-150zm0 0" fill="#d8d8fc"/><path d="m422 330h60v-90h-60zm0 0" fill="#a3a3d1"/><path d="m368.300781 90 135 61.199219-12.601562 27.601562-158.699219-72.300781-158.699219 72.300781-12.601562-27.601562 135-61.199219-135-61.199219 12.601562-27.601562 158.699219 72.300781 158.699219-72.300781 12.601562 27.601562zm0 0" fill="#ff641a"/><g fill="#ffb64c"><path d="m62 30h60v30h-60zm0 0"/><path d="m62 90h60v30h-60zm0 0"/><path d="m62 150h60v30h-60zm0 0"/><path d="m62 210h60v30h-60zm0 0"/><path d="m62 270h60v30h-60zm0 0"/><path d="m62 330h60v30h-60zm0 0"/></g><path d="m152 390h30v60h-30zm0 0" fill="#ff9100"/><path d="m212 390h30v60h-30zm0 0" fill="#ff9100"/><path d="m272 390h30v60h-30zm0 0" fill="#ff9100"/><path d="m332 390h30v60h-30zm0 0" fill="#ff9100"/><path d="m392 390h30v60h-30zm0 0" fill="#ff9100"/><path d="m452 390h30v60h-30zm0 0" fill="#ff9100"/><path d="m368.300781 90 135 61.199219-12.601562 27.601562-158.699219-72.300781v-33l158.699219-72.300781 12.601562 27.601562zm0 0" fill="#f03800"/></svg>