<svg height="512pt" viewBox="-31 0 512 512" width="512pt" xmlns="http://www.w3.org/2000/svg"><path d="m0 0v512h450v-512zm0 0" fill="#575f64"/><path d="m225 0h225v512h-225zm0 0" fill="#32393f"/><path d="m60 60v272h330v-272zm0 0" fill="#ff641a"/><path d="m225 60h165v272h-165zm0 0" fill="#f03800"/><path d="m225 138.101562-45-30v175.796876l45-30 87-57.898438zm0 0" fill="#f2f2fc"/><path d="m60 362h30v90h-30zm0 0" fill="#32393f"/><path d="m120 362h30v90h-30zm0 0" fill="#32393f"/><path d="m312 196-87 57.898438v-115.796876zm0 0" fill="#d8d8fc"/><path d="m180 392h210v30h-210zm0 0" fill="#d8d8fc"/><path d="m225 392h165v30h-165zm0 0" fill="#a3a3d1"/><path d="m210 362h30v90h-30zm0 0" fill="#ff641a"/><path d="m225 362h15v90h-15zm0 0" fill="#f03800"/></svg>