<svg height="512pt" viewBox="-31 0 512 512" width="512pt" xmlns="http://www.w3.org/2000/svg"><path d="m270 61v330l-30 30h-210l-30-30v-330l30-31h210zm0 0" fill="#32393f"/><path d="m270 61v330l-30 30h-105v-391h105zm0 0" fill="#32393f"/><path d="m30 91h210v270h-210zm0 0" fill="#ffd396"/><path d="m135 91h105v270h-105zm0 0" fill="#ffb64c"/><path d="m0 391h270v121h-270zm0 0" fill="#f2f2fc"/><path d="m135 391h135v121h-135zm0 0" fill="#d8d8fc"/><path d="m120 436h30v30h-30zm0 0" fill="#575f64"/><path d="m135 436h15v30h-15zm0 0" fill="#32393f"/><path d="m0 0h270v61h-270zm0 0" fill="#f2f2fc"/><path d="m135 0h135v61h-135zm0 0" fill="#d8d8fc"/><path d="m390 151h30v45h-30zm0 0" fill="#32393f"/><path d="m369.300781 181-30-60h-108.601562l-30 60h-80.699219v210h330v-210zm0 0" fill="#ff641a"/><path d="m450 181v210h-165v-270h54.300781l30 60zm0 0" fill="#f03800"/><path d="m285 211c-33 0-60 27-60 60s27 60 60 60 60-27 60-60-27-60-60-60zm0 0" fill="#f2f2fc"/><path d="m345 271c0 33-27 60-60 60v-120c33 0 60 27 60 60zm0 0" fill="#d8d8fc"/><path d="m285 241c-16.5 0-30 13.5-30 30s13.5 30 30 30 30-13.5 30-30-13.5-30-30-30zm0 0" fill="#64e1dc"/><path d="m315 271c0 16.5-13.5 30-30 30v-60c16.5 0 30 13.5 30 30zm0 0" fill="#00c8c8"/></svg>