<svg height="512pt" viewBox="0 -61 512 512" width="512pt" xmlns="http://www.w3.org/2000/svg"><g fill="#575f64"><path d="m241 255h30v75h-30zm0 0"/><path d="m241 360h30v30h-30zm0 0"/><path d="m181 360h-90v-30h60v-75h30zm0 0"/></g><path d="m421 360h-90v-105h30v75h60zm0 0" fill="#32393f"/><path d="m451 330h30v30h-30zm0 0" fill="#32393f"/><path d="m31 330h30v30h-30zm0 0" fill="#575f64"/><path d="m256 255h15v75h-15zm0 0" fill="#32393f"/><path d="m256 360h15v30h-15zm0 0" fill="#32393f"/><path d="m512 90v90l-91 90h-330l-91-90v-90l91-90h330zm0 0" fill="#9bfcff"/><path d="m512 90v90l-91 90h-165v-270h165zm0 0" fill="#64e1dc"/><path d="m91 15v-15h-91v90h15c41.421875 0 76-33.578125 76-75zm0 0" fill="#00c8c8"/><path d="m15 180h-15v90h91v-15c0-41.421875-34.578125-75-76-75zm0 0" fill="#00c8c8"/><path d="m512 180h-15c-41.421875 0-76 33.578125-76 75v15h91zm0 0" fill="#1cadb5"/><path d="m497 90h15v-90h-91v15c0 41.421875 34.578125 75 76 75zm0 0" fill="#1cadb5"/><path d="m406 113.785156 21.210938 21.210938-21.210938 21.210937-21.210938-21.210937zm0 0" fill="#1cadb5"/><path d="m106 113.789062 21.210938 21.210938-21.210938 21.210938-21.210938-21.210938zm0 0" fill="#00c8c8"/><path d="m256 60c-41.398438 0-75 33.601562-75 75s33.601562 75 75 75 75-33.601562 75-75-33.601562-75-75-75zm0 0" fill="#00c8c8"/><path d="m331 135c0 41.398438-33.601562 75-75 75v-150c41.398438 0 75 33.601562 75 75zm0 0" fill="#1cadb5"/></svg>