<svg height="512pt" viewBox="0 0 512 512" width="512pt" xmlns="http://www.w3.org/2000/svg"><g fill="#32393f"><path d="m241 0h30v45h-30zm0 0"/><path d="m256 0h15v45h-15zm0 0"/><path d="m241 377h30v75h-30zm0 0"/><path d="m256 377h15v75h-15zm0 0"/></g><path d="m30 45h452v332h-452zm0 0" fill="#f2f2fc"/><path d="m256 45h226v332h-226zm0 0" fill="#d8d8fc"/><path d="m361 122h61v30h-61zm0 0" fill="#a3a3d1"/><path d="m361 182h61v30h-61zm0 0" fill="#a3a3d1"/><path d="m361 242h61v30h-61zm0 0" fill="#a3a3d1"/><path d="m361 302h61v30h-61zm0 0" fill="#a3a3d1"/><path d="m326.5 147.5-70.5 70.800781-30 30-60-60-49.5 49.199219-21-21 70.5-70.800781 60 60 30-30 49.5-49.199219zm0 0" fill="#575f64"/><path d="m326.5 147.5-70.5 70.800781v-42.601562l49.5-49.199219zm0 0" fill="#32393f"/><path d="m331 302v30h-240v-210h30v180zm0 0" fill="#575f64"/><path d="m256 302h75v30h-75zm0 0" fill="#32393f"/><path d="m331 122v90h-30v-60h-60v-30zm0 0" fill="#575f64"/><path d="m0 362h512v30h-512zm0 0" fill="#ff641a"/><path d="m256 362h256v30h-256zm0 0" fill="#f03800"/><path d="m256 422c-24.902344 0-45 20.097656-45 45 0 24.898438 20.097656 45 45 45s45-20.101562 45-45c0-24.902344-20.097656-45-45-45zm0 60c-8.402344 0-15-6.601562-15-15 0-8.402344 6.597656-15 15-15s15 6.597656 15 15c0 8.398438-6.597656 15-15 15zm0 0" fill="#ff641a"/><path d="m301 467c0 24.898438-20.097656 45-45 45v-30c8.402344 0 15-6.601562 15-15 0-8.402344-6.597656-15-15-15v-30c24.902344 0 45 20.097656 45 45zm0 0" fill="#f03800"/><path d="m0 30h512v30h-512zm0 0" fill="#ff641a"/><path d="m256 30h256v30h-256zm0 0" fill="#f03800"/><path d="m331 122v90h-30v-60h-45v-30zm0 0" fill="#32393f"/></svg>