<svg height="512pt" viewBox="0 -31 512 512" width="512pt" xmlns="http://www.w3.org/2000/svg"><path d="m30 90h452v330h-452zm0 0" fill="#32393f"/><path d="m256 90h226v330h-226zm0 0" fill="#32393f"/><path d="m60 120h392v300h-392zm0 0" fill="#ffd396"/><path d="m256 120h196v300h-196zm0 0" fill="#ffb64c"/><path d="m512 390v15c0 24.898438-20.097656 45-45 45h-422c-24.902344 0-45-20.101562-45-45v-15zm0 0" fill="#f2f2fc"/><path d="m512 390v15c0 24.898438-20.097656 45-45 45h-211v-60zm0 0" fill="#d8d8fc"/><path d="m322.300781 0h-132.601562l-68.699219 68.699219v52.199219c0 88.5 49.199219 168 128.402344 207.601562l6.597656 3.300781 6.597656-3.300781c79.203125-39.601562 128.402344-119.101562 128.402344-207.601562v-52.199219zm0 0" fill="#ff641a"/><path d="m391 68.699219v52.199219c0 88.5-49.199219 168-128.402344 207.601562l-6.597656 3.300781v-331.800781h66.300781zm0 0" fill="#f03800"/><path d="m241 120v30h60v90h-30v30h-30v-30h-30v-30h60v-30h-60v-90h30v-30h30v30h30v30zm0 0" fill="#f2f2fc"/><g fill="#d8d8fc"><path d="m301 90v30h-45v-60h15v30zm0 0"/><path d="m301 150v90h-30v30h-15v-60h15v-30h-15v-30zm0 0"/></g></svg>