<svg height="512pt" viewBox="0 0 512 512" width="512pt" xmlns="http://www.w3.org/2000/svg"><path d="m241 60h30v45h-30zm0 0" fill="#575f64"/><path d="m241 0h30v30h-30zm0 0" fill="#575f64"/><path d="m256 0h15v30h-15zm0 0" fill="#32393f"/><path d="m256 60h15v45h-15zm0 0" fill="#32393f"/><path d="m181 136h-30v-76h-60v-30h90zm0 0" fill="#575f64"/><path d="m361 136h-30v-106h90v30h-60zm0 0" fill="#32393f"/><path d="m181 482h-90v-30h60v-75h30zm0 0" fill="#575f64"/><path d="m421 482h-90v-105h30v75h60zm0 0" fill="#32393f"/><path d="m241 407h30v45h-30zm0 0" fill="#575f64"/><path d="m241 482h30v30h-30zm0 0" fill="#575f64"/><path d="m256 407h15v45h-15zm0 0" fill="#32393f"/><path d="m256 482h15v30h-15zm0 0" fill="#32393f"/><path d="m256 90c-102 0-195.699219 82.898438-256 166 60.300781 83.097656 154 166 256 166s195.699219-82.902344 256-166c-60.300781-83.101562-154-166-256-166zm0 0" fill="#f2f2fc"/><path d="m512 256c-60.300781 83.097656-154 166-256 166v-332c102 0 195.699219 82.898438 256 166zm0 0" fill="#d8d8fc"/><path d="m256 151c-57.898438 0-105 47.101562-105 105s47.101562 105 105 105 105-47.101562 105-105-47.101562-105-105-105zm0 0" fill="#64e1dc"/><path d="m361 256c0 57.898438-47.101562 105-105 105v-210c57.898438 0 105 47.101562 105 105zm0 0" fill="#00c8c8"/><path d="m451 452h30v30h-30zm0 0" fill="#32393f"/><path d="m31 452h30v30h-30zm0 0" fill="#575f64"/><path d="m451 30h30v30h-30zm0 0" fill="#32393f"/><path d="m31 30h30v30h-30zm0 0" fill="#575f64"/><path d="m256 211c-24.902344 0-45 20.097656-45 45 0 24.898438 20.097656 45 45 45s45-20.101562 45-45c0-24.902344-20.097656-45-45-45zm0 0" fill="#575f64"/><path d="m301 256c0 24.898438-20.097656 45-45 45v-90c24.902344 0 45 20.097656 45 45zm0 0" fill="#32393f"/></svg>