<svg height="512pt" viewBox="0 0 512 512" width="512pt" xmlns="http://www.w3.org/2000/svg"><g fill="#32393f"><path d="m241 332h30v120h-30zm0 0"/><path d="m256 332h15v120h-15zm0 0"/><path d="m75 452h151v30h-151zm0 0"/><path d="m286 452h151v30h-151zm0 0"/></g><path d="m45 512c-24.8125 0-45-20.1875-45-45s20.1875-45 45-45 45 20.1875 45 45-20.1875 45-45 45zm0 0" fill="#ff641a"/><path d="m256 422c-24.902344 0-45 20.097656-45 45s20.097656 45 45 45 45-20.097656 45-45-20.097656-45-45-45zm0 0" fill="#ff641a"/><path d="m467 512c-24.8125 0-45-20.1875-45-45s20.1875-45 45-45 45 20.1875 45 45-20.1875 45-45 45zm0 0" fill="#f03800"/><path d="m301 467c0 24.902344-20.097656 45-45 45v-90c24.902344 0 45 20.097656 45 45zm0 0" fill="#f03800"/><path d="m482 60v60l-45 30h-369.5l-37.5-30v-120h142.300781l60 60zm0 0" fill="#ffb64c"/><path d="m482 60v60l-45 30h-181v-90zm0 0" fill="#ff9100"/><path d="m30 120h452v272h-452zm0 0" fill="#ffd396"/><path d="m256 120h226v272h-226zm0 0" fill="#ffb64c"/><path d="m90 242h91v30h-91zm0 0" fill="#575f64"/><path d="m90 302h91v30h-91zm0 0" fill="#575f64"/></svg>