<svg height="512pt" viewBox="0 0 512 512" width="512pt" xmlns="http://www.w3.org/2000/svg"><path d="m512 0v241h-61l-30-15h-90l-30 15h-180v-241zm0 0" fill="#9bfcff"/><path d="m512 0v241h-61l-30-15h-45v-226zm0 0" fill="#64e1dc"/><path d="m451 226v75l-75-56.101562-5.097656-3.898438h-69.902344v-15c0-41.398438 33.601562-75 75-75s75 33.601562 75 75zm0 0" fill="#ff641a"/><path d="m451 226v75l-75-56.101562v-93.898438c41.398438 0 75 33.601562 75 75zm0 0" fill="#f03800"/><path d="m376 61c-24.902344 0-45 20.097656-45 45 0 24.898438 20.097656 45 45 45s45-20.101562 45-45c0-24.902344-20.097656-45-45-45zm0 0" fill="#ffbd86"/><path d="m181 61h120v30h-120zm0 0" fill="#575f64"/><path d="m181 121h120v30h-120zm0 0" fill="#575f64"/><path d="m391 211v240h-180l-30-15h-90l-30 15h-61v-240zm0 0" fill="#f2f2fc"/><path d="m391 211v240h-180l-30-15h-45v-225zm0 0" fill="#d8d8fc"/><path d="m136 271c-24.902344 0-45 20.097656-45 45 0 24.898438 20.097656 45 45 45s45-20.101562 45-45c0-24.902344-20.097656-45-45-45zm0 0" fill="#ffbd86"/><path d="m211 271h120v30h-120zm0 0" fill="#a3a3d1"/><path d="m211 331h120v30h-120zm0 0" fill="#a3a3d1"/><path d="m136 361v-90c24.902344 0 45 20.097656 45 45 0 24.898438-20.097656 45-45 45zm0 0" fill="#f6a96c"/><path d="m211 436v15h-69.902344l-5.097656 3.898438-75 57.101562v-76c0-41.398438 33.601562-75 75-75s75 33.601562 75 75zm0 0" fill="#ff641a"/><path d="m211 436v15h-69.902344l-5.097656 3.898438v-93.898438c41.398438 0 75 33.601562 75 75zm0 0" fill="#f03800"/><path d="m376 151v-90c24.902344 0 45 20.097656 45 45 0 24.898438-20.097656 45-45 45zm0 0" fill="#f6a96c"/></svg>