<svg height="512pt" viewBox="0 0 512 512" width="512pt" xmlns="http://www.w3.org/2000/svg"><path d="m241 331h30v121h-30zm0 0" fill="#32393f"/><path d="m256 331h15v121h-15zm0 0" fill="#32393f"/><path d="m512 240v122h-512v-122l30-30h452zm0 0" fill="#575f64"/><path d="m512 240v122h-256v-152h226zm0 0" fill="#32393f"/><path d="m60 286h61v30h-61zm0 0" fill="#f2f2fc"/><path d="m151 286h60v30h-60zm0 0" fill="#f2f2fc"/><path d="m241 286h60v30h-60zm0 0" fill="#f2f2fc"/><path d="m437 279.785156 21.210938 21.210938-21.210938 21.210937-21.210938-21.210937zm0 0" fill="#00c8c8"/><path d="m377 279.785156 21.210938 21.210938-21.210938 21.210937-21.210938-21.210937zm0 0" fill="#00c8c8"/><path d="m256 286h45v30h-45zm0 0" fill="#d8d8fc"/><path d="m512 120v120h-512v-120l30-30h452zm0 0" fill="#7c8388"/><path d="m512 120v120h-256v-150h226zm0 0" fill="#575f64"/><path d="m0 0h512v120h-512zm0 0" fill="#575f64"/><path d="m256 0h256v120h-256zm0 0" fill="#32393f"/><path d="m75 452h151v30h-151zm0 0" fill="#32393f"/><path d="m286 452h151v30h-151zm0 0" fill="#32393f"/><path d="m60 45h61v30h-61zm0 0" fill="#f2f2fc"/><path d="m151 45h60v30h-60zm0 0" fill="#f2f2fc"/><path d="m241 45h60v30h-60zm0 0" fill="#f2f2fc"/><path d="m436.996094 38.785156 21.210937 21.210938-21.210937 21.210937-21.210938-21.210937zm0 0" fill="#00c8c8"/><path d="m376.996094 38.785156 21.210937 21.210938-21.210937 21.210937-21.210938-21.210937zm0 0" fill="#00c8c8"/><g fill="#d8d8fc"><path d="m256 45h45v30h-45zm0 0"/><path d="m60 165h61v30h-61zm0 0"/><path d="m151 165h60v30h-60zm0 0"/><path d="m241 165h60v30h-60zm0 0"/></g><path d="m437 158.785156 21.210938 21.210938-21.210938 21.210937-21.210938-21.210937zm0 0" fill="#00c8c8"/><path d="m377 158.785156 21.210938 21.210938-21.210938 21.210937-21.210938-21.210937zm0 0" fill="#00c8c8"/><path d="m256 165h45v30h-45zm0 0" fill="#a3a3d1"/><path d="m45 512c-24.8125 0-45-20.1875-45-45s20.1875-45 45-45 45 20.1875 45 45-20.1875 45-45 45zm0 0" fill="#64e1dc"/><path d="m256 422c-24.902344 0-45 20.097656-45 45s20.097656 45 45 45 45-20.097656 45-45-20.097656-45-45-45zm0 0" fill="#64e1dc"/><path d="m467 512c-24.8125 0-45-20.1875-45-45s20.1875-45 45-45 45 20.1875 45 45-20.1875 45-45 45zm0 0" fill="#00c8c8"/><path d="m301 467c0 24.902344-20.097656 45-45 45v-90c24.902344 0 45 20.097656 45 45zm0 0" fill="#00c8c8"/></svg>