<svg height="512pt" viewBox="-46 0 512 512" width="512pt" xmlns="http://www.w3.org/2000/svg"><path d="m315 61v330l-30 30h-210l-30-30v-330l30-31h210zm0 0" fill="#32393f"/><path d="m315 61v330l-30 30h-105v-391h105zm0 0" fill="#32393f"/><path d="m75 91h210v270h-210zm0 0" fill="#ffd396"/><path d="m180 91h105v270h-105zm0 0" fill="#ffb64c"/><path d="m45 391h270v121h-270zm0 0" fill="#f2f2fc"/><path d="m180 391h135v121h-135zm0 0" fill="#d8d8fc"/><path d="m165 436h30v30h-30zm0 0" fill="#575f64"/><path d="m180 436h15v30h-15zm0 0" fill="#32393f"/><path d="m45 0h270v61h-270zm0 0" fill="#f2f2fc"/><path d="m180 0h135v61h-135zm0 0" fill="#d8d8fc"/><path d="m105 241v90h90v-90zm0 0" fill="#ff641a"/><path d="m180 241h15v90h-15zm0 0" fill="#f03800"/><path d="m360 121-27 30h-303l-30-30 45-60h270zm0 0" fill="#64e1dc"/><path d="m360 121-27 30h-153v-90h135zm0 0" fill="#00c8c8"/><path d="m300 121-30 30 30 21.402344c9.179688 5.636718 19.5625 8.597656 30 8.597656s20.820312-2.960938 30-8.597656v-51.402344zm0 0" fill="#d8d8fc"/><path d="m240 121-30 24.375 30 27.027344c9.179688 5.636718 19.5625 8.597656 30 8.597656s20.820312-2.960938 30-8.597656v-51.402344zm0 0" fill="#f03800"/><path d="m180 121-30 23.4375 30 27.964844c9.179688 5.636718 19.5625 8.597656 30 8.597656s20.820312-2.960938 30-8.597656v-51.402344zm0 0" fill="#d8d8fc"/><path d="m120 121-30 30 30 21.402344c9.179688 5.636718 19.5625 8.597656 30 8.597656s20.820312-2.960938 30-8.597656v-51.402344zm0 0" fill="#ff641a"/><path d="m60 121-30 23.4375 30 27.964844c9.179688 5.636718 19.5625 8.597656 30 8.597656s20.820312-2.960938 30-8.597656v-51.402344zm0 0" fill="#f2f2fc"/><path d="m0 121v51.402344c9.179688 5.636718 19.5625 8.597656 30 8.597656s20.820312-2.960938 30-8.597656v-51.402344zm0 0" fill="#ff641a"/><path d="m420 408.699219-21.300781 21-21.296875 21.300781-42.304688-42.300781-21.296875 21-42.300781-127.199219 127.199219 42.300781-21.296875 21.296875zm0 0" fill="#ff641a"/><path d="m398.699219 429.699219-21.296875 21.300781-42.304688-42.300781-21.296875 21-42.300781-127.199219zm0 0" fill="#f03800"/></svg>