<svg height="512pt" viewBox="0 0 512 512" width="512pt" xmlns="http://www.w3.org/2000/svg"><path d="m256 0c-140.699219 0-256 115.300781-256 256s115.300781 256 256 256 256-115.300781 256-256-115.300781-256-256-256zm0 0" fill="#9bfcff"/><path d="m512 256c0 140.699219-115.300781 256-256 256v-512c140.699219 0 256 115.300781 256 256zm0 0" fill="#64e1dc"/><path d="m482 256c0 124.199219-101.800781 226-226 226s-226-101.800781-226-226 101.800781-226 226-226 226 101.800781 226 226zm0 0" fill="#00c8c8"/><path d="m482 256c0 124.199219-101.800781 226-226 226v-452c124.199219 0 226 101.800781 226 226zm0 0" fill="#1cadb5"/><g fill="#9bfcff"><path d="m256 0c-90.902344 0-165 115.300781-165 256s74.097656 256 165 256 165-115.300781 165-256-74.097656-256-165-256zm0 482c-74.398438 0-135-101.800781-135-226s60.601562-226 135-226 135 101.800781 135 226-60.601562 226-135 226zm0 0"/><path d="m47.101562 121h417.796876v30h-417.796876zm0 0"/><path d="m47.101562 361h417.796876v30h-417.796876zm0 0"/><path d="m241 15h30v482h-30zm0 0"/><path d="m15 241h482v30h-482zm0 0"/></g><path d="m256 15h15v482h-15zm0 0" fill="#64e1dc"/><path d="m256 121h208.898438v30h-208.898438zm0 0" fill="#64e1dc"/><path d="m256 361h208.898438v30h-208.898438zm0 0" fill="#64e1dc"/><path d="m256 241h241v30h-241zm0 0" fill="#64e1dc"/><path d="m421 256c0 140.699219-74.097656 256-165 256v-30c74.398438 0 135-101.800781 135-226s-60.601562-226-135-226v-30c90.902344 0 165 115.300781 165 256zm0 0" fill="#64e1dc"/><path d="m256 121c-57.898438 0-105 47.101562-105 105 0 22.800781 7.199219 44.699219 21 63l84 102 84-102c13.800781-18.300781 21-40.199219 21-63 0-57.898438-47.101562-105-105-105zm0 150c-24.902344 0-45-20.101562-45-45 0-24.902344 20.097656-45 45-45s45 20.097656 45 45c0 24.898438-20.097656 45-45 45zm0 0" fill="#ff641a"/><path d="m361 226c0 22.800781-7.199219 44.699219-21 63l-84 102v-120c24.902344 0 45-20.101562 45-45 0-24.902344-20.097656-45-45-45v-60c57.898438 0 105 47.101562 105 105zm0 0" fill="#f03800"/></svg>