<svg height="512pt" viewBox="-31 0 512 512" width="512pt" xmlns="http://www.w3.org/2000/svg"><path d="m90 150v332c0 16.5-43.5 30-60 30s-30-13.5-30-30v-332zm0 0" fill="#d8d8fc"/><path d="m450 120v347c0 24.898438-20.097656 45-45 45h-375c16.5 0 30-13.5 30-30v-482h270zm0 0" fill="#f2f2fc"/><path d="m450 120v347c0 24.898438-20.097656 45-45 45h-150v-512h75zm0 0" fill="#d8d8fc"/><path d="m351.300781 0h-21.300781v120h120v-21.300781zm0 0" fill="#a3a3d1"/><path d="m120 60v152h180v-152zm0 0" fill="#ff641a"/><path d="m390 392h-120v-150h120zm0 0" fill="#a3a3d1"/><g fill="#d8d8fc"><path d="m120 242h120v30h-120zm0 0"/><path d="m120 302h120v30h-120zm0 0"/><path d="m120 362h120v30h-120zm0 0"/><path d="m120 422h270v30h-270zm0 0"/></g><path d="m255 60h45v152h-45zm0 0" fill="#f03800"/><path d="m255 422h135v30h-135zm0 0" fill="#a3a3d1"/></svg>