<svg height="512pt" viewBox="0 0 512 512" width="512pt" xmlns="http://www.w3.org/2000/svg"><path d="m181 406h150v91h-150zm0 0" fill="#d8d8fc"/><path d="m256 406h75v91h-75zm0 0" fill="#a3a3d1"/><path d="m512 0v360l-30 31h-452l-30-31v-360zm0 0" fill="#32393f"/><path d="m512 0v360l-30 31h-226v-391zm0 0" fill="#32393f"/><path d="m30 30h452v300h-452zm0 0" fill="#ffd396"/><path d="m256 30h226v300h-226zm0 0" fill="#ffb64c"/><path d="m331 60c-28.515625 0-54.386719 7.808594-75 20.3125v139.375c20.613281 12.503906 46.484375 20.3125 75 20.3125 7.71875 0 15.4375-.542969 22.996094-1.640625l68.003906 44.664063v-73.242188c19.410156-16.394531 30-37.382812 30-59.78125 0-49.628906-54.832031-90-121-90zm0 0" fill="#00c8c8"/><path d="m181 60c-66.167969 0-121 40.371094-121 90 0 22.398438 11.589844 43.390625 31 59.78125v73.242188l67.003906-44.664063c7.558594 1.097656 15.277344 1.640625 22.996094 1.640625 28.515625 0 54.386719-7.808594 75-20.3125v-139.375c-20.613281-12.503906-46.484375-20.3125-75-20.3125zm0 0" fill="#ff641a"/><path d="m0 360h512v61h-512zm0 0" fill="#f2f2fc"/><path d="m256 360h256v61h-256zm0 0" fill="#d8d8fc"/><path d="m121 482h270v30h-270zm0 0" fill="#f2f2fc"/><path d="m256 482h135v30h-135zm0 0" fill="#d8d8fc"/><path d="m301 150c0 28.199219-17.699219 53.097656-45 69.601562-27.300781-16.503906-45-41.402343-45-69.601562s17.699219-53.101562 45-69.601562c27.300781 16.5 45 41.402343 45 69.601562zm0 0" fill="#575f64"/><path d="m301 150c0 28.199219-17.699219 53.097656-45 69.601562v-139.203124c27.300781 16.5 45 41.402343 45 69.601562zm0 0" fill="#32393f"/></svg>