<svg height="512pt" viewBox="0 0 512 512" width="512pt" xmlns="http://www.w3.org/2000/svg"><path d="m391 60h91v92h-91zm0 0" fill="#32393f"/><path d="m30 60h91v92h-91zm0 0" fill="#32393f"/><path d="m91 0h330v152h-330zm0 0" fill="#f2f2fc"/><path d="m256 0h165v152h-165zm0 0" fill="#d8d8fc"/><path d="m0 122h512v210h-512zm0 0" fill="#ff641a"/><path d="m256 122h256v210h-256zm0 0" fill="#f03800"/><path d="m91 182h30v30h-30zm0 0" fill="#575f64"/><path d="m91 257h330v255h-330zm0 0" fill="#f2f2fc"/><path d="m121 272h270v188.699219h-270zm0 0" fill="#ffd396"/><path d="m211 362c-16.539062 0-30-13.460938-30-30s13.460938-30 30-30 30 13.460938 30 30-13.460938 30-30 30zm0 0" fill="#ff641a"/><path d="m256 257h165v255h-165zm0 0" fill="#d8d8fc"/><path d="m256 272h135v188.699219h-135zm0 0" fill="#ffb64c"/><path d="m391 460.699219v21.300781h-98.699219l-36.300781-18.601562-51.597656-26.097657 51.597656-51.601562 30-30zm0 0" fill="#00c8c8"/><path d="m391 460.699219v21.300781h-98.699219l-36.300781-18.601562v-77.699219l30-30zm0 0" fill="#1cadb5"/><path d="m292.300781 482h-171.300781v-21.300781l75-75zm0 0" fill="#64e1dc"/><path d="m292.300781 482h-36.300781v-36.300781zm0 0" fill="#00c8c8"/><path d="m256 242h195v30h-195zm0 0"/><g fill="#32393f"><path d="m61 242h390v30h-390zm0 0"/><path d="m256 242h195v30h-195zm0 0"/></g></svg>