<svg height="512pt" viewBox="-61 0 512 512" width="512pt" xmlns="http://www.w3.org/2000/svg"><path d="m291.300781 0h-261.300781v129.699219l-30 30v81.300781h30v30h-30v81.300781l30 30v129.699219h360v-413.300781zm0 0" fill="#575f64"/><path d="m390 98.699219v413.300781h-195v-512h96.300781zm0 0" fill="#32393f"/><path d="m90 241v210h240v-210zm0 0" fill="#ffb64c"/><path d="m195 241h135v210h-135zm0 0" fill="#ff9100"/><path d="m90 90h30v61h-30zm0 0" fill="#ffd396"/><path d="m150 90h30v61h-30zm0 0" fill="#ffd396"/><path d="m210 90h30v61h-30zm0 0" fill="#ffb64c"/><path d="m270 90h30v61h-30zm0 0" fill="#ffb64c"/><path d="m180 271h60v150h-60zm0 0" fill="#ffd396"/><path d="m120 391h30v30h-30zm0 0" fill="#ffd396"/><path d="m120 331h30v30h-30zm0 0" fill="#ffd396"/><path d="m120 271h30v30h-30zm0 0" fill="#ffd396"/><g fill="#ffb64c"><path d="m270 271h30v30h-30zm0 0"/><path d="m270 331h30v30h-30zm0 0"/><path d="m270 391h30v30h-30zm0 0"/><path d="m195 271h45v150h-45zm0 0"/></g></svg>