<svg height="512pt" viewBox="-16 0 512 512" width="512pt" xmlns="http://www.w3.org/2000/svg"><path d="m270 61v330l-30 30h-210l-30-30v-330l30-31h210zm0 0" fill="#32393f"/><path d="m270 61v330l-30 30h-105v-391h105zm0 0" fill="#32393f"/><path d="m30 91h210v270h-210zm0 0" fill="#ffd396"/><path d="m135 91h105v270h-105zm0 0" fill="#ffb64c"/><path d="m0 0h270v61h-270zm0 0" fill="#f2f2fc"/><path d="m135 0h135v61h-135zm0 0" fill="#d8d8fc"/><path d="m270 391h-270v121h270v-61l30-33.601562zm0 0" fill="#f2f2fc"/><path d="m135 391v121h135v-61l30-33.601562-30-26.398438zm0 0" fill="#d8d8fc"/><path d="m120 436h30v30h-30zm0 0" fill="#575f64"/><path d="m135 436h15v30h-15zm0 0" fill="#32393f"/><path d="m480 121v270h-129.902344l-35.097656 26.398438-45 33.601562v-60h-120v-270zm0 0" fill="#ff641a"/><path d="m480 121v270h-129.902344l-35.097656 26.398438v-296.398438zm0 0" fill="#f03800"/><path d="m352.199219 176.5c-16.5 0-28.796875 7.5-37.199219 17.097656-8.402344-9.597656-20.699219-17.097656-37.199219-17.097656-29.398437 0-52.199219 24.300781-52.199219 55.5 0 38.097656 47.996094 75.898438 89.398438 108.300781 42.296875-32.402343 89.398438-69 89.398438-108.300781 0-31.199219-22.800782-55.5-52.199219-55.5zm0 0" fill="#f2f2fc"/><path d="m404.398438 232c0 39.300781-47.097657 75.898438-89.398438 108.300781v-146.699219c8.402344-9.601562 20.699219-17.101562 37.199219-17.101562 29.398437 0 52.199219 24.300781 52.199219 55.5zm0 0" fill="#d8d8fc"/></svg>