<svg height="512pt" viewBox="-31 0 512 512" width="512pt" xmlns="http://www.w3.org/2000/svg"><path d="m270 61v330l-30 30h-210l-30-30v-330l30-31h210zm0 0" fill="#32393f"/><path d="m270 61v330l-30 30h-105v-391h105zm0 0" fill="#32393f"/><path d="m30 91h210v270h-210zm0 0" fill="#ffd396"/><path d="m135 91h105v270h-105zm0 0" fill="#ffb64c"/><path d="m0 391h270v121h-270zm0 0" fill="#f2f2fc"/><path d="m135 391h135v121h-135zm0 0" fill="#d8d8fc"/><path d="m120 436h30v30h-30zm0 0" fill="#575f64"/><path d="m135 436h15v30h-15zm0 0" fill="#32393f"/><path d="m0 0h270v61h-270zm0 0" fill="#f2f2fc"/><path d="m135 0h135v61h-135zm0 0" fill="#d8d8fc"/><path d="m193.5 181-17.101562-60h-86.398438v30h63.601562l60 210h200.398438l36-180zm0 0" fill="#ff641a"/><path d="m450 181-36 180h-99v-180zm0 0" fill="#f03800"/><path d="m270 241h30v60h-30zm0 0" fill="#575f64"/><path d="m330 241h30v60h-30zm0 0" fill="#32393f"/><path d="m375 421c-24.8125 0-45-20.1875-45-45s20.1875-45 45-45 45 20.1875 45 45-20.1875 45-45 45zm0 0" fill="#32393f"/><path d="m255 421c-24.8125 0-45-20.1875-45-45s20.1875-45 45-45 45 20.1875 45 45-20.1875 45-45 45zm0 0" fill="#575f64"/><path d="m375 361c-8.277344 0-15 6.722656-15 15s6.722656 15 15 15 15-6.722656 15-15-6.722656-15-15-15zm0 0" fill="#d8d8fc"/><path d="m255 361c-8.277344 0-15 6.722656-15 15s6.722656 15 15 15 15-6.722656 15-15-6.722656-15-15-15zm0 0" fill="#f2f2fc"/></svg>