<svg height="512pt" viewBox="0 0 512 512" width="512pt" xmlns="http://www.w3.org/2000/svg"><g fill="#32393f"><path d="m383.210938 120h-79.734376v-30h67.3125l30-30h51.210938v30h-38.789062zm0 0"/><path d="m316 150h136v30h-136zm0 0"/><path d="m452 270h-51.210938l-30-30h-67.3125v-30h79.734376l30 30h38.789062zm0 0"/><path d="m482 60h30v30h-30zm0 0"/><path d="m482 150h30v30h-30zm0 0"/><path d="m482 240h30v30h-30zm0 0"/></g><path d="m151 315h30v60h-30zm0 0" fill="#575f64"/><path d="m166 315h15v60h-15zm0 0" fill="#32393f"/><path d="m166 0c-90.902344 0-166 74.097656-166 165 0 90.898438 75.097656 165 166 165s165-74.101562 165-165c0-90.902344-74.097656-165-165-165zm0 0" fill="#ff641a"/><path d="m331 165c0 90.898438-74.097656 165-165 165v-330c90.902344 0 165 74.097656 165 165zm0 0" fill="#f03800"/><path d="m136 360h60v152h-60zm0 0" fill="#00c8c8"/><path d="m166 360h30v152h-30zm0 0" fill="#1cadb5"/><path d="m166 60c-57.898438 0-105 47.101562-105 105s47.101562 105 105 105 105-47.101562 105-105-47.101562-105-105-105zm0 0" fill="#ffd396"/><path d="m271 165c0 57.898438-47.101562 105-105 105v-210c57.898438 0 105 47.101562 105 105zm0 0" fill="#ffb64c"/></svg>