<svg height="512pt" viewBox="0 0 512 512" width="512pt" xmlns="http://www.w3.org/2000/svg"><path d="m512 120v362h-512v-362l30-30h451zm0 0" fill="#f2f2fc"/><path d="m512 120v362h-256v-392h225zm0 0" fill="#d8d8fc"/><path d="m61 182h240v128.699219h-240zm0 0" fill="#ffd396"/><path d="m256 182h45v128.699219h-45zm0 0" fill="#ffb64c"/><path d="m0 0h512v120h-512zm0 0" fill="#575f64"/><path d="m256 0h256v120h-256zm0 0" fill="#32393f"/><path d="m61 45h210v30h-210zm0 0" fill="#f2f2fc"/><g fill="#f03800"><path d="m435.996094 38.785156 21.210937 21.210938-21.210937 21.210937-21.210938-21.210937zm0 0"/><path d="m375.996094 38.785156 21.210937 21.210938-21.210937 21.210937-21.210938-21.210937zm0 0"/><path d="m316 38.789062 21.210938 21.210938-21.210938 21.210938-21.210938-21.210938zm0 0"/></g><path d="m256 45h15v30h-15zm0 0" fill="#d8d8fc"/><path d="m361 182h90v30h-90zm0 0" fill="#a3a3d1"/><path d="m361 242h90v30h-90zm0 0" fill="#a3a3d1"/><path d="m361 302h90v30h-90zm0 0" fill="#a3a3d1"/><path d="m136 235.789062-75 75v51.210938h38.789062l90-30-8.789062-51.210938zm0 0" fill="#00c8c8"/><path d="m466 469.699219-21.300781 21-21.296875 21.300781-42.304688-42.300781-21.296875 21-42.300781-127.199219 127.199219 42.300781-21.296875 21.296875zm0 0" fill="#ff641a"/><path d="m444.699219 490.699219-21.296875 21.300781-42.304688-42.300781-21.296875 21-42.300781-127.199219zm0 0" fill="#f03800"/><path d="m301 310.699219v51.300781h-201.300781l126.300781-126.300781zm0 0" fill="#64e1dc"/><path d="m301 310.699219v51.300781h-45v-96.300781zm0 0" fill="#00c8c8"/></svg>