<svg height="512pt" viewBox="0 -76 512.00025 512" width="512pt" xmlns="http://www.w3.org/2000/svg"><path d="m90 0h422v360h-422zm0 0" fill="#575f64"/><path d="m301 0h211v360h-211zm0 0" fill="#32393f"/><path d="m391 60v162.597656l-90 13.203125-89.5 15.898438-61.5-71.699219v-120zm0 0" fill="#ffd396"/><path d="m391 60v162.597656l-90 13.203125v-175.800781zm0 0" fill="#ffb64c"/><path d="m391 222.597656v77.402344h-241v-120l61.5 41.699219 89.5-75.898438zm0 0" fill="#64e1dc"/><path d="m391 222.597656v77.402344h-90v-154.199219zm0 0" fill="#00c8c8"/><g fill="#d8d8fc"><path d="m421 90h30v60h-30zm0 0"/><path d="m421 240h30v60h-30zm0 0"/><path d="m421 180h30v30h-30zm0 0"/></g><path d="m31.820312 53.03125-31.820312-31.816406 21.214844-21.214844 31.816406 31.820312zm0 0" fill="#ff641a"/><path d="m42.425781 42.425781-10.605469 10.609375-31.820312-31.820312 10.609375-10.609375zm0 0" fill="#f03800"/><path d="m42.425781 106.066406 119.21875 119.21875 95.460938 31.820313-31.820313-95.460938-119.21875-119.21875h-42.425781l-26.515625 26.515625zm0 0" fill="#ff641a"/><path d="m42.425781 106.066406 119.21875 119.21875 95.460938 31.820313-204.070313-204.074219-15.910156 15.910156zm0 0" fill="#f03800"/><path d="m42.425781 106.066406-42.425781-42.425781 63.640625-63.640625 42.425781 42.429688zm0 0" fill="#575f64"/><path d="m42.425781 106.066406-42.425781-42.425781 31.820312-31.820313 42.425782 42.425782zm0 0" fill="#32393f"/></svg>