<svg height="512pt" viewBox="-31 0 512 512" width="512pt" xmlns="http://www.w3.org/2000/svg"><g fill="#32393f"><path d="m210 377h30v75h-30zm0 0"/><path d="m210 482h30v30h-30zm0 0"/><path d="m150 482h-90v-30h60v-75h30zm0 0"/><path d="m390 482h-90v-105h30v75h60zm0 0"/><path d="m420 452h30v30h-30zm0 0"/><path d="m0 452h30v30h-30zm0 0"/><path d="m225 377h15v75h-15zm0 0"/><path d="m225 482h15v30h-15zm0 0"/></g><path d="m330 105v91h-60v-91c0-24.902344-20.097656-45-45-45s-45 20.097656-45 45v91h-60v-91c0-57.898438 47.101562-105 105-105s105 47.101562 105 105zm0 0" fill="#7c8388"/><path d="m330 105v91h-60v-91c0-24.902344-20.097656-45-45-45v-60c57.898438 0 105 47.101562 105 105zm0 0" fill="#575f64"/><path d="m90 181v211h270v-211zm0 0" fill="#ffd396"/><path d="m225 181h135v211h-135zm0 0" fill="#ffb64c"/><path d="m255 241v30h-15v61h-30v-61h-15v-30zm0 0" fill="#575f64"/><path d="m225 241h30v30h-15v61h-15zm0 0" fill="#32393f"/></svg>