<svg height="512pt" viewBox="0 0 512 512" width="512pt" xmlns="http://www.w3.org/2000/svg"><path d="m181 406h150v91h-150zm0 0" fill="#d8d8fc"/><path d="m256 406h75v91h-75zm0 0" fill="#a3a3d1"/><path d="m512 0v360l-30 30h-452l-30-30v-360zm0 0" fill="#32393f"/><path d="m512 0v360l-30 30h-226v-390zm0 0" fill="#32393f"/><path d="m30 30h452v300h-452zm0 0" fill="#ffd396"/><path d="m256 30h226v300h-226zm0 0" fill="#ffb64c"/><path d="m121 482h270v30h-270zm0 0" fill="#f2f2fc"/><path d="m256 482h135v30h-135zm0 0" fill="#d8d8fc"/><path d="m332.800781 225-31.800781 75-35.699219 30h-18.601562l-35.699219-30-31.800781-75 60-120h33.601562zm0 0" fill="#f2f2fc"/><path d="m332.800781 225-31.800781 75-35.699219 30h-9.300781v-225h16.800781zm0 0" fill="#d8d8fc"/><path d="m241 105h30v135h-30zm0 0" fill="#d8d8fc"/><path d="m256 105h15v135h-15zm0 0" fill="#a3a3d1"/><path d="m136 90h240v30h-240zm0 0" fill="#575f64"/><path d="m256 90h120v30h-120zm0 0" fill="#32393f"/><path d="m151 150h-91v-90h91zm0 0" fill="#ff641a"/><path d="m452 150h-91v-90h91zm0 0" fill="#f03800"/><path d="m211 300h90v90h-90zm0 0" fill="#ff641a"/><path d="m256 300h45v90h-45zm0 0" fill="#f03800"/><path d="m0 360h512v61h-512zm0 0" fill="#f2f2fc"/><path d="m256 360h256v61h-256zm0 0" fill="#d8d8fc"/></svg>