<svg height="512pt" viewBox="-31 0 512 512" width="512pt" xmlns="http://www.w3.org/2000/svg"><path d="m435 91h15v-91h-150v30h-150v-30h-150v91h15c8.402344 0 15 6.597656 15 15s-6.597656 15-15 15h-15v270h15c8.402344 0 15 6.597656 15 15s-6.597656 15-15 15h-15v91h150v-30h150v30h150v-91h-15c-8.402344 0-15-6.597656-15-15s6.597656-15 15-15h15v-270h-15c-8.402344 0-15-6.597656-15-15s6.597656-15 15-15zm0 0" fill="#64e1dc"/><path d="m420 106c0 8.402344 6.597656 15 15 15h15v270h-15c-8.402344 0-15 6.597656-15 15s6.597656 15 15 15h15v91h-150v-30h-75v-452h75v-30h150v91h-15c-8.402344 0-15 6.597656-15 15zm0 0" fill="#00c8c8"/><g fill="#32393f"><path d="m60 241h75v30h-75zm0 0"/><path d="m60 301h75v30h-75zm0 0"/><path d="m150 346h30v75h-30zm0 0"/><path d="m210 346h30v75h-30zm0 0"/><path d="m315 241h75v30h-75zm0 0"/><path d="m60 181h75v30h-75zm0 0"/><path d="m150 91h30v75h-30zm0 0"/><path d="m210 91h30v75h-30zm0 0"/><path d="m270 346h30v75h-30zm0 0"/><path d="m315 301h75v30h-75zm0 0"/><path d="m315 181h75v30h-75zm0 0"/><path d="m270 91h30v75h-30zm0 0"/><path d="m225 91h15v75h-15zm0 0"/><path d="m225 346h15v75h-15zm0 0"/><path d="m120 151v210h210v-210zm0 0"/><path d="m225 151h105v210h-105zm0 0"/></g><path d="m150 181h30v90h-30zm0 0" fill="#ffb64c"/><path d="m210 181h90v30h-90zm0 0" fill="#ffb64c"/><path d="m270 241h30v90h-30zm0 0" fill="#ff9100"/><path d="m210 241h30v30h-30zm0 0" fill="#ffb64c"/><path d="m150 301h90v30h-90zm0 0" fill="#ffb64c"/><path d="m225 241h15v30h-15zm0 0" fill="#ff9100"/><path d="m225 301h15v30h-15zm0 0" fill="#ff9100"/><path d="m225 181h75v30h-75zm0 0" fill="#ff9100"/></svg>