<svg height="512pt" viewBox="-31 0 512 512" width="512pt" xmlns="http://www.w3.org/2000/svg"><path d="m270 61v330l-30 30h-210l-30-30v-330l30-31h210zm0 0" fill="#32393f"/><path d="m270 61v330l-30 30h-105v-391h105zm0 0" fill="#32393f"/><path d="m30 91h210v270h-210zm0 0" fill="#ffd396"/><path d="m135 91h105v270h-105zm0 0" fill="#ffb64c"/><path d="m0 391h270v121h-270zm0 0" fill="#f2f2fc"/><path d="m135 391h135v121h-135zm0 0" fill="#d8d8fc"/><path d="m120 436h30v30h-30zm0 0" fill="#575f64"/><path d="m135 436h15v30h-15zm0 0" fill="#32393f"/><path d="m0 0h270v61h-270zm0 0" fill="#f2f2fc"/><path d="m135 0h135v61h-135zm0 0" fill="#d8d8fc"/><path d="m120 121v210l97.5-43.636719 7.5-70.910156zm0 0" fill="#d8d8fc"/><path d="m345 216.453125 22.5 57.273437 82.5 57.273438v-210zm0 0" fill="#a3a3d1"/><path d="m450 331h-330l105-114.601562 60 54.601562 60-54.601562zm0 0" fill="#f2f2fc"/><path d="m450 331h-165v-60l60-54.601562zm0 0" fill="#d8d8fc"/><path d="m450 121-165 180-165-180zm0 0" fill="#64e1dc"/><path d="m450 121-165 180v-180zm0 0" fill="#00c8c8"/></svg>