<svg height="512pt" viewBox="-31 0 512 512" width="512pt" xmlns="http://www.w3.org/2000/svg"><path d="m270 61v330l-30 30h-210l-30-30v-330l30-31h210zm0 0" fill="#32393f"/><path d="m270 61v330l-30 30h-105v-391h105zm0 0" fill="#32393f"/><path d="m30 91h210v270h-210zm0 0" fill="#ffd396"/><path d="m135 91h105v270h-105zm0 0" fill="#ffb64c"/><path d="m0 391h270v121h-270zm0 0" fill="#f2f2fc"/><path d="m135 391h135v121h-135zm0 0" fill="#d8d8fc"/><path d="m120 436h30v30h-30zm0 0" fill="#575f64"/><path d="m135 436h15v30h-15zm0 0" fill="#32393f"/><path d="m0 0h270v61h-270zm0 0" fill="#f2f2fc"/><path d="m135 0h135v61h-135zm0 0" fill="#d8d8fc"/><path d="m120 121h330v270h-330zm0 0" fill="#f2f2fc"/><path d="m150 151h270v188.699219h-270zm0 0" fill="#ffd396"/><path d="m240 241c-16.539062 0-30-13.460938-30-30s13.460938-30 30-30 30 13.460938 30 30-13.460938 30-30 30zm0 0" fill="#ff641a"/><path d="m285 121h165v270h-165zm0 0" fill="#d8d8fc"/><path d="m285 151h135v188.699219h-135zm0 0" fill="#ffb64c"/><path d="m420 339.699219v21.300781h-98.699219l-36.300781-18.601562-51.597656-26.097657 51.597656-51.601562 30-30zm0 0" fill="#00c8c8"/><path d="m420 339.699219v21.300781h-98.699219l-36.300781-18.601562v-77.699219l30-30zm0 0" fill="#1cadb5"/><path d="m321.300781 361h-171.300781v-21.300781l75-75zm0 0" fill="#64e1dc"/><path d="m321.300781 361h-36.300781v-36.300781zm0 0" fill="#00c8c8"/></svg>