<svg height="512pt" viewBox="-16 0 512 512" width="512pt" xmlns="http://www.w3.org/2000/svg"><path d="m360 241v271h-90l-30-30v-211l30-30zm0 0" fill="#c6715a"/><path d="m360 376v136h-90l-30-30v-106zm0 0" fill="#b35f49"/><path d="m270 196v316h-48.601562l-60-30h-131.398438v-211h131.398438l48.601562-24.300781v-95.699219h15c24.902344 0 45 20.097656 45 45zm0 0" fill="#b35f49"/><path d="m270 376v136h-48.601562l-60-30h-131.398438v-106zm0 0" fill="#99503d"/><path d="m413.101562 0c-25.203124 0-42.902343 13.5-53.101562 27.300781-10.199219-13.800781-25.5-27.300781-50.699219-27.300781-37.5 0-66.898437 31.199219-66.898437 71.398438 0 49.800781 65.398437 103.902343 117.597656 144.402343 57-44.402343 120-93.101562 120-144.402343 0-40.199219-29.398438-71.398438-66.898438-71.398438zm0 0" fill="#ff641a"/><path d="m480 71.398438c0 51.300781-63 100-120 144.402343v-188.5c10.199219-13.800781 27.898438-27.300781 53.101562-27.300781 37.5 0 66.898438 31.199219 66.898438 71.398438zm0 0" fill="#f03800"/><path d="m0 241h60v271h-60zm0 0" fill="#ff641a"/><path d="m0 376h60v136h-60zm0 0" fill="#f03800"/></svg>