<svg height="512pt" viewBox="0 -16 512 512" width="512pt" xmlns="http://www.w3.org/2000/svg"><path d="m512 120v360h-512v-360l31-30h450zm0 0" fill="#f2f2fc"/><path d="m512 120v360h-256v-390h225zm0 0" fill="#d8d8fc"/><path d="m256 180c-90.902344 0-165 74.097656-165 165v45h150v-15c0-8.402344 6.597656-15 15-15s15 6.597656 15 15v15h150v-45c0-90.902344-74.097656-165-165-165zm0 0" fill="#575f64"/><path d="m421 345v45h-150v-15c0-8.402344-6.597656-15-15-15v-180c90.902344 0 165 74.097656 165 165zm0 0" fill="#32393f"/><path d="m256 210c-74.398438 0-135 60.597656-135 135v15h92.699219c6-17.402344 22.800781-30 42.300781-30s36.300781 12.597656 42.300781 30h92.699219v-15c0-74.402344-60.601562-135-135-135zm0 0" fill="#9bfcff"/><path d="m391 345v15h-92.699219c-6-17.402344-22.800781-30-42.300781-30v-120c74.398438 0 135 60.597656 135 135zm0 0" fill="#64e1dc"/><path d="m0 0h512v120h-512zm0 0" fill="#575f64"/><path d="m256 0h256v120h-256zm0 0" fill="#32393f"/><path d="m61 45h210v30h-210zm0 0" fill="#f2f2fc"/><path d="m435.996094 38.785156 21.210937 21.210938-21.210937 21.210937-21.210938-21.210937zm0 0" fill="#f03800"/><path d="m375.996094 38.785156 21.210937 21.210938-21.210937 21.210937-21.207032-21.210937zm0 0" fill="#f03800"/><path d="m316 38.789062 21.210938 21.207032-21.210938 21.210937-21.210938-21.210937zm0 0" fill="#f03800"/><path d="m256 45h15v30h-15zm0 0" fill="#d8d8fc"/><g fill="#575f64"><path d="m241 270h30v75h-30zm0 0"/><path d="m241 195h30v45h-30zm0 0"/><path d="m171.140625 208.929688 42.4375 42.433593-21.210937 21.210938-42.4375-42.433594zm0 0"/></g><path d="m335.394531 214.390625 21.210938 21.210937-36.972657 36.972657-21.210937-21.210938zm0 0" fill="#32393f"/><path d="m161.253906 329.222656-52.339844-17.445312 9.492188-28.449219 52.339844 17.449219zm0 0" fill="#575f64"/><path d="m350.746094 329.222656-9.492188-28.445312 52.339844-17.449219 9.492188 28.449219zm0 0" fill="#32393f"/><path d="m256 195h15v45h-15zm0 0" fill="#32393f"/><path d="m256 270h15v75h-15zm0 0" fill="#32393f"/></svg>