<svg height="512pt" viewBox="-31 0 512 512" width="512pt" xmlns="http://www.w3.org/2000/svg"><path d="m450 482h-195v-30h165v-105l30 15zm0 0" fill="#32393f"/><path d="m450 227v75l-30 15v-90c0-107.402344-87.597656-197-195-197s-195 89.597656-195 197v90l-30-15v-75c0-124.199219 100.800781-227 225-227s225 102.800781 225 227zm0 0" fill="#575f64"/><path d="m450 227v75l-30 15v-90c0-107.402344-87.597656-197-195-197v-30c124.199219 0 225 102.800781 225 227zm0 0" fill="#32393f"/><path d="m225 422c-24.902344 0-45 20.097656-45 45 0 24.898438 20.097656 45 45 45s45-20.101562 45-45c0-24.902344-20.097656-45-45-45zm0 0" fill="#64e1dc"/><path d="m35.511719 302h-35.511719v60h35.511719c12.398437 34.875 45.359375 60 84.488281 60v-180c-39.128906 0-72.089844 25.125-84.488281 60zm0 0" fill="#64e1dc"/><g fill="#00c8c8"><path d="m414.488281 302h35.511719v60h-35.511719c-12.398437 34.875-45.359375 60-84.488281 60v-180c39.128906 0 72.089844 25.125 84.488281 60zm0 0"/><path d="m270 467c0 24.898438-20.097656 45-45 45v-90c24.902344 0 45 20.097656 45 45zm0 0"/></g></svg>