<svg height="512pt" viewBox="-31 0 512 512" width="512pt" xmlns="http://www.w3.org/2000/svg"><path d="m0 0v512h450v-512zm0 0" fill="#f2f2fc"/><path d="m225 0h225v512h-225zm0 0" fill="#d8d8fc"/><path d="m60 60v91h330v-91zm0 0" fill="#ff641a"/><path d="m150 271h-90v-90h90zm0 0" fill="#d8d8fc"/><path d="m180 181v90h90v-90zm0 0" fill="#d8d8fc"/><path d="m390 271h-90v-90h90zm0 0" fill="#a3a3d1"/><path d="m60 301h90v30h-90zm0 0" fill="#d8d8fc"/><path d="m180 301h90v30h-90zm0 0" fill="#d8d8fc"/><path d="m300 301h90v30h-90zm0 0" fill="#a3a3d1"/><path d="m60 361v91h330v-91zm0 0" fill="#d8d8fc"/><path d="m225 181h45v90h-45zm0 0" fill="#a3a3d1"/><path d="m225 301h45v30h-45zm0 0" fill="#a3a3d1"/><path d="m225 60h165v91h-165zm0 0" fill="#f03800"/><path d="m225 361h165v91h-165zm0 0" fill="#a3a3d1"/></svg>