<svg height="512pt" viewBox="0 0 512 512" width="512pt" xmlns="http://www.w3.org/2000/svg"><path d="m226 360h60v152h-60zm0 0" fill="#575f64"/><path d="m256 360h30v152h-30zm0 0" fill="#32393f"/><path d="m512 60v330h-512v-330h31l15-15 15 15h120l15-15 15 15h120l14.097656-15 15.902344 15zm0 0" fill="#ffd396"/><path d="m512 60v330h-256v-330h75l14.097656-15 15.902344 15zm0 0" fill="#ffb64c"/><path d="m280.300781 330h-60l-50.699219-41.699219-1.800781-63.300781 26.699219-66.601562zm0 0" fill="#00c8c8"/><g fill="#f03800"><path d="m301 240h150v30h-150zm0 0"/><path d="m301 180h150v30h-150zm0 0"/><path d="m301 300h150v30h-150zm0 0"/></g><path d="m280.300781 330h-24.300781v-48.601562zm0 0" fill="#1cadb5"/><path d="m136 161.398438-84.300781 168.601562h168.601562zm0 0" fill="#64e1dc"/><path d="m121 120v-75c0-24.8125-20.1875-45-45-45s-45 20.1875-45 45v15h30v-15c0-8.277344 6.722656-15 15-15s15 6.722656 15 15v75h-30v30h90v-30zm0 0" fill="#575f64"/><path d="m301 120v30h-90v-30h30v-75c0-8.402344-6.597656-15-15-15s-15 6.597656-15 15v15h-30v-15c0-24.902344 20.097656-45 45-45 11.699219 0 22.199219 4.5 30 11.699219 9.300781 8.101562 15 20.101562 15 33.300781v75zm0 0" fill="#575f64"/><path d="m421 120v-75c0-24.8125-20.1875-45-45-45s-45 20.1875-45 45v15h30v-15c0-8.277344 6.722656-15 15-15s15 6.722656 15 15v75h-30v30h90v-30zm0 0" fill="#32393f"/><path d="m301 120v30h-45v-138.300781c9.300781 8.101562 15 20.101562 15 33.300781v75zm0 0" fill="#32393f"/></svg>