<svg height="512pt" viewBox="0 0 512 512" width="512pt" xmlns="http://www.w3.org/2000/svg"><path d="m61 301h330l30-30v-241l-30-30h-330l-31 30v241zm0 0" fill="#32393f"/><path d="m61 301h330l30-30v-120h-391v120zm0 0" fill="#32393f"/><path d="m91 30h270v241h-270zm0 0" fill="#ffd396"/><path d="m91 151h270v120h-270zm0 0" fill="#ffb64c"/><path d="m391 301 121-30v-271h-121zm0 0" fill="#f2f2fc"/><path d="m391 151v150l121-30v-120zm0 0" fill="#d8d8fc"/><path d="m436 121h30v60h-30zm0 0" fill="#575f64"/><path d="m436 151h30v30h-30zm0 0" fill="#32393f"/><path d="m0 0h61v301h-61zm0 0" fill="#f2f2fc"/><path d="m0 151h61v150h-61zm0 0" fill="#d8d8fc"/><path d="m181 90h30v106h-30zm0 0" fill="#64e1dc"/><path d="m241 60h30v106h-30zm0 0" fill="#ff641a"/><path d="m181 151h30v45h-30zm0 0" fill="#00c8c8"/><path d="m241 151h30v15h-30zm0 0" fill="#f03800"/><path d="m256 211h-135v-60h30v30h105zm0 0" fill="#32393f"/><path d="m444 271v-30h-68v-30h-67v-60h-68v239.984375l-53.789062-36.195313-42.421876 42.421876 113.789063 114.789062h192.421875c39.257812-58.871094 61-128.398438 61-199.164062v-41.835938zm0 0" fill="#b35f49"/></svg>