<svg id="logo-svg" data-name="Capa 1" xmlns="http://www.w3.org/2000/svg" viewBox="0 0 206.0666 206.0676">
    <path class="cls-1"
        d="M258.9114,377.8413V252.8536H221.1069V367.7l13.4018,13.301,16.2,16.078h85.0223l19.3838-19.2381H258.9114Z"
        transform="translate(-190.1862 -221.9324)" />
    <polygon class="cls-1"
        points="174.746 30.921 96.552 30.921 96.552 113.333 96.552 134.113 175.146 134.113 175.146 30.921 174.746 30.921" />
    <path class="cls-1"
        d="M387.4307,231.0065a30.3945,30.3945,0,0,0-21.673-9.0741H220.6812a30.4951,30.4951,0,0,0-30.4951,30.4951V397.5049A30.6143,30.6143,0,0,0,220.6812,428H365.7577a30.4951,30.4951,0,0,0,30.4951-30.4951V252.4275A30.3893,30.3893,0,0,0,387.4307,231.0065Zm-1.6935,166.4984a19.98,19.98,0,0,1-19.98,19.98H220.6812a20.0493,20.0493,0,0,1-19.98-19.98V252.4275a19.98,19.98,0,0,1,19.98-19.98H365.7577a20.0036,20.0036,0,0,1,19.98,19.98V397.5049Z"
        transform="translate(-190.1862 -221.9324)" />
</svg>